<?xml version="1.0" encoding="UTF-8"?>
<svg xmlns="http://www.w3.org/2000/svg" version="1.1" viewBox="0 0 512 512">
  <defs>
    <style>
      .cls-1 {
        fill: #323232;
      }
    </style>
  </defs>
  <!-- Generator: Adobe Illustrator 28.6.0, SVG Export Plug-In . SVG Version: 1.2.0 Build 709)  -->
  <g>
    <g id="Layer_1">
      <path class="cls-1" d="M309.3,277.3c-17.7,0-32-14.3-32-32s14.3-32,32-32,32,14.3,32,32-14.3,32-32,32ZM510.4,387.1c10.1,58-28.8,113.3-86.8,123.4-6,1-12.1,1.6-18.2,1.6h-85.3c-11.8,0-21.3-9.6-21.3-21.3v-48.3c-13.9,3.7-28.3,5.6-42.7,5.6-14.4,0-28.8-2-42.7-5.8v48.4c0,11.8-9.6,21.3-21.3,21.3h-85.3C47.8,512,0,464.2,0,405.3c0-6.1.5-12.2,1.6-18.2l6.4-37.1c5.9-34.1,38.3-57,72.4-51.1,16.9,2.9,31.9,12.6,41.4,26.9,27,39.6,78.9,79.7,134.1,79.7h0c66.8,0,132.6-59.3,152.1-114.7,3.2-8.5,11.3-14.2,20.5-14.2h9.2c17.2.4,31.3-13.4,31.5-30.6,0-.2,0-.3,0-.5,0-15.4-11.1-28.7-26.2-31.4-9.3-1.7-16.4-9.3-17.4-18.8-9.1-86.8-82.4-152.7-169.7-152.5-119,0-151.6,77.4-177.9,139.6-4.8,11.2-9.3,22-14.1,31.6,86.9-4.6,166.9-48.7,217.3-119.6,6.8-9.6,20.2-11.8,29.8-5,9.6,6.8,11.8,20.2,5,29.8h0c-27.7,39.3-63.8,71.8-105.7,95.3,17.2,4.2,27.7,21.5,23.4,38.7-4.2,17.2-21.5,27.7-38.7,23.4-17.2-4.2-27.7-21.5-23.4-38.7.5-1.9,1.1-3.7,1.9-5.5-49,19.9-102.1,27.9-154.8,23.5-11.7-1.6-19.9-12.3-18.3-24,.9-6.5,4.7-12.2,10.3-15.5,12.9-14.6,22.5-31.9,28.1-50.5C66.6,99.7,108.8,0,256,0c103.7-.2,192.5,74.3,210.1,176.5,27.8,11.6,45.8,38.7,45.9,68.8,0,17.7-6.5,34.8-18.2,48.1.1.6.5,1,.6,1.6l16,92ZM170.7,425.4c-33.7-18.1-62.6-44.1-84.1-75.8-3.7-5.6-10-9-16.7-9h-.4c-9.6.2-17.8,7.2-19.4,16.7l-6.4,37.1c-6.1,34.8,17.2,68,52.1,74,3.6.6,7.3.9,10.9,1h64v-43.9ZM468.4,394.3l-13.4-77.1c-4.1,1-8.2,1.6-12.4,1.8-21.5,45.4-57,82.8-101.3,106.5v43.7h64c35.3,0,64-28.7,64-64,0-3.7-.3-7.3-.9-11h0Z"/>
    </g>
  </g>
</svg>