<?xml version="1.0" encoding="UTF-8"?>
<svg xmlns="http://www.w3.org/2000/svg" version="1.1" viewBox="0 0 512 512">
  <defs>
    <style>
      .cls-1 {
        fill: #b2b1d9;
      }
    </style>
  </defs>
  <!-- Generator: Adobe Illustrator 28.6.0, SVG Export Plug-In . SVG Version: 1.2.0 Build 709)  -->
  <g>
    <g id="Layer_1">
      <path class="cls-1" d="M416,512c-8.7,0-16.6-5.3-19.8-13.4l-18-45.1-45.1-19c-10.9-4.8-15.8-17.5-11-28.3,2.3-5.2,6.5-9.2,11.7-11.3l44.5-16.9,17.9-44.6c4.6-10.9,17.2-16.1,28.2-11.5,5.2,2.2,9.3,6.3,11.5,11.5l17.9,44.8,44.8,17.9c10.9,4.6,16.1,17.2,11.5,28.1-2.2,5.2-6.3,9.3-11.5,11.5l-44.8,17.9-17.9,44.8c-3.2,8.1-11.1,13.5-19.8,13.5ZM213.3,448c-18.9.2-35.7-12-41.3-30.1l-34.4-107.7-108-36.1c-22.7-7.6-35-32.1-27.4-54.9,4.4-13.3,15.1-23.6,28.5-27.7l107.2-32.7,36.1-107.8c5.5-18.2,22.7-30.4,41.7-29.6,18.9,0,35.6,12.5,40.9,30.7l32.7,107,107.3,34.3c22.8,7.7,35.1,32.3,27.4,55.2-4.3,12.9-14.5,23.1-27.4,27.4h0l-107.5,34.4-34.4,107.5c-5.6,18.1-22.4,30.4-41.3,30.1ZM215.7,64.5l-40.8,118.2c-2.2,6.5-7.4,11.6-14,13.7l-117.8,35.9,118.2,40.9c6.5,2.1,11.5,7.2,13.6,13.7l37.8,118,39-118c2.1-6.6,7.3-11.7,13.8-13.8l118-37.7c.2,0,.3-.1.4-.2l-118.4-38.9c-6.7-2.1-11.9-7.4-13.9-14.1l-35.9-117.7ZM390,255.6h0ZM437.3,149.3c-9.8,0-18.3-6.7-20.7-16.1l-7.6-30.5-30.6-8.2c-11.4-3.1-18.1-14.8-15.1-26.1,2-7.6,8.1-13.5,15.8-15.2l29.9-6.9,7.6-30c2.9-11.4,14.5-18.4,25.9-15.5,7.6,1.9,13.6,7.9,15.5,15.5l7.6,30.3,30.3,7.6c11.4,2.9,18.4,14.5,15.5,25.9-1.9,7.6-7.9,13.6-15.5,15.5l-30.3,7.6-7.6,30.3c-2.4,9.5-10.9,16.1-20.7,16.1Z"/>
    </g>
  </g>
</svg>