<svg width="80" height="80" viewBox="0 0 80 80" fill="none" xmlns="http://www.w3.org/2000/svg">
<path d="M16 40L56 40M38 65C38 61.717 38.6466 58.466 39.903 55.4329C41.1594 52.3998 43.0009 49.6438 45.3223 47.3223C47.6438 45.0009 50.3998 43.1594 53.4329 41.903C56.4661 40.6466 59.717 40 63 40C59.717 40 56.4661 39.3534 53.4329 38.097C50.3998 36.8406 47.6438 34.9991 45.3223 32.6777C43.0009 30.3562 41.1594 27.6002 39.903 24.5671C38.6466 21.5339 38 18.283 38 15M80 40C80 62.0914 62.0914 80 40 80C17.9086 80 0 62.0914 0 40C0 17.9086 17.9086 0 40 0C62.0914 0 80 17.9086 80 40Z" stroke="#323232" stroke-width="2"/>
</svg>
