<svg width="82" height="82" viewBox="0 0 82 82" fill="none" xmlns="http://www.w3.org/2000/svg">
<path d="M17 41L57 41M39 66C39 62.717 39.6466 59.466 40.903 56.4329C42.1594 53.3998 44.0009 50.6438 46.3223 48.3223C48.6438 46.0009 51.3998 44.1594 54.4329 42.903C57.4661 41.6466 60.717 41 64 41C60.717 41 57.4661 40.3534 54.4329 39.097C51.3998 37.8406 48.6438 35.9991 46.3223 33.6777C44.0009 31.3562 42.1594 28.6002 40.903 25.5671C39.6466 22.5339 39 19.283 39 16M81 41C81 63.0914 63.0914 81 41 81C18.9086 81 1 63.0914 1 41C1 18.9086 18.9086 1 41 1C63.0914 1 81 18.9086 81 41Z" stroke="#323232" stroke-width="2"/>
</svg>
