<?xml version="1.0" encoding="UTF-8"?>
<svg id="Capa_2" data-name="Capa 2" xmlns="http://www.w3.org/2000/svg" viewBox="0 0 498.56 499.3">
  <defs>
    <style>
      .cls-1 {
        fill: #323232;
      }
    </style>
  </defs>
  <g id="Capa_1-2" data-name="Capa 1">
    <g>
      <path class="cls-1" d="M438.22,0c3.67,1.32,7.54,1.54,11.44,2.67,22.02,6.39,39.94,24.19,46.23,46.32,1.11,3.91,1.37,7.78,2.67,11.47v378.38c-1.32,3.68-1.54,7.55-2.67,11.47-6.33,21.89-24.32,40.07-46.23,46.32-3.9,1.11-7.77,1.37-11.44,2.67H60.58c-31.99-4.47-57.18-29.55-60.22-62.05C1,309.41-1.54,181.23,1.65,53.59,7.21,26.23,32.67,2.72,60.58,0h377.64ZM385.66,93.62H113.14l24.46,280.73,111.4,31.29,112.21-31.29,24.46-280.73Z"/>
      <polygon class="cls-1" points="335.05 151.16 332.13 185.29 201.71 185.29 204.63 220.39 328.24 220.39 318.92 326.8 248.9 346.05 179.42 326.6 174.46 271.1 208.52 271.1 211.57 300.23 250.59 309.91 287.23 300.23 291.25 255.5 173.48 255.5 163.75 151.16 335.05 151.16"/>
    </g>
  </g>
</svg>