<?xml version="1.0" encoding="UTF-8"?>
<svg xmlns="http://www.w3.org/2000/svg" version="1.1" viewBox="0 0 512 512">
  <defs>
    <style>
      .cls-1 {
        fill: #323232;
      }
    </style>
  </defs>
  <!-- Generator: Adobe Illustrator 28.6.0, SVG Export Plug-In . SVG Version: 1.2.0 Build 709)  -->
  <g>
    <g id="Capa_1">
      <g id="Layer_2">
        <g id="Surfaces">
          <g id="Drawing_Surface">
            <g id="Outline_no_shadow">
              <path class="cls-1" d="M208,173.7h-.4l-26.5,89h54.2l-27.3-89ZM208,173.7h-.4l-26.5,89h54.2l-27.3-89ZM421.3,6.4H90.7C40.5,6.4,0,46.9,0,97.1v317.9c0,50.1,40.5,90.7,90.7,90.7h330.7c50.1,0,90.7-40.5,90.7-90.7V97.1c0-50.1-40.5-90.7-90.7-90.7ZM313.6,359h-44.6c-1.5.2-3-.9-3.4-2.3l-17.5-50.8h-79.4l-16.2,50.1c-.4,1.9-2.1,3.2-4.1,3h-40.1c-2.3,0-3-1.3-2.3-3.8l68.7-197.8c.6-2.1,1.3-4.5,2.1-7,.9-4.5,1.3-9.2,1.3-13.9-.2-1.1.6-2.1,1.7-2.3h55.3c1.7,0,2.6.6,2.8,1.7l77.9,219.7c.6,2.3,0,3.4-2.1,3.4ZM386.1,355.8c0,2.3-.9,3.4-2.8,3.4h-41.8c-2.1,0-3.2-1.3-3.2-3.4v-164.3c0-2.1.9-3,2.8-3h42.2c1.9,0,2.8,1.1,2.8,3v164.3h0ZM381.7,163.2c-4.9,5.1-12.2,7.9-19.4,7.5-7,.2-13.9-2.6-19-7.5-4.9-5.3-7.5-12.4-7.3-19.6-.2-7.3,2.6-14.1,7.7-19,5.1-4.9,11.9-7.5,19-7.5s14.7,2.6,19.4,7.5c4.7,5.1,7.3,11.9,7,19,.2,7.3-2.3,14.3-7.5,19.6ZM207.6,173.7l-26.5,89h54.2l-27.3-89h-.4Z"/>
            </g>
          </g>
        </g>
      </g>
    </g>
  </g>
</svg>