<?xml version="1.0" encoding="UTF-8"?>
<svg xmlns="http://www.w3.org/2000/svg" version="1.1" viewBox="0 0 512 512">
  <defs>
    <style>
      .cls-1 {
        fill: #323232;
      }
    </style>
  </defs>
  <!-- Generator: Adobe Illustrator 28.6.0, SVG Export Plug-In . SVG Version: 1.2.0 Build 709)  -->
  <g>
    <g id="Outline">
      <path class="cls-1" d="M405.3,85.3h-23.5C371.7,35.7,328,0,277.3,0h-42.7c-50.7,0-94.3,35.7-104.5,85.3h-23.5C47.8,85.4,0,133.1,0,192v213.3c0,58.9,47.8,106.6,106.7,106.7h298.7c58.9,0,106.6-47.8,106.7-106.7v-213.3c0-58.9-47.8-106.6-106.7-106.7ZM234.7,42.7h42.7c27,.1,51.1,17.2,60.1,42.7h-162.8c9-25.5,33-42.6,60.1-42.7ZM106.7,128h298.7c35.3,0,64,28.7,64,64v64H42.7v-64c0-35.3,28.7-64,64-64ZM405.3,469.3H106.7c-35.3,0-64-28.7-64-64v-106.7h192v21.3c0,11.8,9.6,21.3,21.3,21.3s21.3-9.6,21.3-21.3v-21.3h192v106.7c0,35.3-28.7,64-64,64Z"/>
    </g>
  </g>
</svg>