<?xml version="1.0" encoding="UTF-8"?>
<svg xmlns="http://www.w3.org/2000/svg" version="1.1" viewBox="0 0 512 512">
  <defs>
    <style>
      .cls-1 {
        fill: #323232;
      }
    </style>
  </defs>
  <!-- Generator: Adobe Illustrator 28.6.0, SVG Export Plug-In . SVG Version: 1.2.0 Build 709)  -->
  <g>
    <g id="Outline">
      <path class="cls-1" d="M469.3,323.9v-153.3c0-58.9-47.8-106.6-106.7-106.7h-213.3c-58.9,0-106.6,47.8-106.7,106.7v153.3c-33.3,11.7-50.7,48.2-39,81.4,9,25.6,33.2,42.7,60.3,42.6h384c35.3,0,63.9-28.5,64-63.7,0-27.1-17-51.3-42.6-60.3ZM149.3,106.7h213.3c35.3,0,64,28.7,64,64v149.3h-88.6c-12.6,0-24.5,5.5-32.6,15.1l-5.3,6.2h-88.5l-5.2-6.2c-8.1-9.6-20-15.1-32.6-15.1h-88.6v-149.3c0-35.3,28.7-64,64-64ZM448,405.3H64c-11.8,0-21.3-9.6-21.3-21.3s9.6-21.3,21.3-21.3h109.9l5.2,6.2c8.1,9.6,20,15.1,32.6,15.1h88.5c12.6,0,24.5-5.5,32.6-15.1l5.3-6.2h109.9c11.8,0,21.3,9.6,21.3,21.3s-9.6,21.3-21.3,21.3Z"/>
    </g>
  </g>
</svg>