<?xml version="1.0" encoding="UTF-8"?>
<svg xmlns="http://www.w3.org/2000/svg" version="1.1" viewBox="0 0 512 512">
  <defs>
    <style>
      .cls-1 {
        fill: #323232;
      }
    </style>
  </defs>
  <!-- Generator: Adobe Illustrator 28.6.0, SVG Export Plug-In . SVG Version: 1.2.0 Build 709)  -->
  <g>
    <g id="Capa_1">
      <g id="Layer_2">
        <g id="Surfaces">
          <g id="Photo_Surface">
            <g id="Outline_no_shadow">
              <path class="cls-1" d="M421.3,6.4H90.7C40.5,6.4,0,46.9,0,97.1v317.9c0,50.1,40.5,90.7,90.7,90.7h330.7c50.1,0,90.7-40.5,90.7-90.7V97.1c0-50.1-40.5-90.7-90.7-90.7ZM278.4,318.9l-6.2,37.1c0,1.1-.6,1.9-1.3,2.6-.6.4-1.3.6-2.1.6h-135.3c-2.3,0-3.4-1.3-3.4-3.8v-218c-.2-1.5.9-2.8,2.3-3h42.7c1.1-.2,2.3.6,2.3,1.7v179.8h98.6c2.1,0,2.8,1.1,2.3,3ZM405.5,230c0,1.7-1.1,2.3-3.4,2.3-13.9-.9-27.7,1.7-40.3,7.3-4.3,1.9-8.3,4.5-11.5,7.9v108.8c0,2.1-.9,3-2.8,3h-41.6c-1.7.2-3.2-.9-3.4-2.6v-119c0-5.1,0-10.5-.2-16s-.2-11.1-.4-16.6c-.2-4.7-.6-9.4-1.3-14.1-.2-1.1.4-2.1,1.5-2.3.2-.2.4-.2.9,0h37.3c2.1,0,3.8,1.5,4.5,3.4.9,1.5,1.5,3.2,1.7,4.9.4,2.1.9,4.5,1.1,6.6.2,2.3.4,4.9.4,7.7,6.4-7.5,14.1-13.7,22.8-18.3,9.8-5.3,20.7-7.9,31.8-7.7,1.5-.2,2.8.9,3,2.3v42.5h0Z"/>
            </g>
          </g>
        </g>
      </g>
    </g>
  </g>
</svg>