<?xml version="1.0" encoding="UTF-8"?>
<svg xmlns="http://www.w3.org/2000/svg" version="1.1" viewBox="0 0 512 512">
  <defs>
    <style>
      .cls-1 {
        fill: #323232;
      }
    </style>
  </defs>
  <!-- Generator: Adobe Illustrator 28.6.0, SVG Export Plug-In . SVG Version: 1.2.0 Build 709)  -->
  <g>
    <g id="Layer_1">
      <path class="cls-1" d="M374.7,320.4c-53.2,0-96.6,43.1-96.6,96s56.4,96,106.9,96h74.4c17.5,0,34-8.3,43.9-22.1,9.4-13,11.9-29.2,6.8-44.3-27.1-81-75.2-125.7-135.6-125.7h0ZM468.8,465.4c-2,2.7-5.4,4.3-9.3,4.3h-74.4c-29.1,0-64.3-23.8-64.3-53.3s24.2-53.3,53.9-53.3c51.9,0,80.4,52.5,95.1,96.5.3.7,1,3-1,5.8h0ZM512.8,77.7c0-20.7-8-40.1-22.6-54.7h0c-29.2-29.2-80.2-29.2-109.3,0L33.2,370.7C12.3,391.6.8,419.4.8,449v42.1c0,11.8,9.6,21.3,21.3,21.3h42.1c29.6,0,57.4-11.5,78.3-32.4L490.2,132.3c14.6-14.6,22.6-34,22.6-54.7h0ZM112.4,449.8c-12.9,12.9-30,19.9-48.1,19.9h-20.8v-20.8c0-18.2,7.1-35.3,19.9-48.1L326.8,137.5l49,49L112.4,449.8h0ZM460,102.2l-54.1,54.1-49-49,54.1-54.1c13-13,35.9-13,48.9,0h0c6.5,6.5,10.1,15.2,10.1,24.5s-3.6,18-10.1,24.5h0ZM23.4,132.3C8.9,117.7.8,98.3.8,77.7S8.9,37.6,23.4,23c29.2-29.2,80.2-29.2,109.3,0l81.9,81.9c8.3,8.3,8.3,21.8,0,30.2s-21.8,8.3-30.2,0L102.6,53.2c-13-13.1-35.9-13-48.9,0-6.5,6.5-10.1,15.2-10.1,24.5s3.6,18,10.1,24.5l81.9,81.9c8.3,8.3,8.3,21.8,0,30.2-4.2,4.2-9.6,6.3-15.1,6.3s-10.9-2.1-15.1-6.3L23.4,132.4h0Z"/>
    </g>
  </g>
</svg>