<?xml version="1.0" encoding="UTF-8"?>
<svg xmlns="http://www.w3.org/2000/svg" version="1.1" viewBox="0 0 512 512">
  <defs>
    <style>
      .cls-1 {
        fill: #f4f0ed;
      }
    </style>
  </defs>
  <!-- Generator: Adobe Illustrator 28.6.0, SVG Export Plug-In . SVG Version: 1.2.0 Build 709)  -->
  <g>
    <g id="Layer_1">
      <g>
        <path class="cls-1" d="M313.6,346.2c-31.9,31.6-83.3,31.6-115.2,0l-104.3-104.3c-.6,3.1-.9,6.3-1,9.4v118.8c0,27,21.9,48.9,48.9,48.9h228c27,0,48.9-21.9,48.9-48.9v-118.8c0-3.2-.3-6.3-1-9.4l-104.3,104.3Z"/>
        <path class="cls-1" d="M290.5,323.2l110.2-110.2-109.9-105.3c-19.1-19.2-50.1-19.3-69.4-.3l-110.2,105.6,110.2,110.2c19.3,18.4,49.8,18.4,69.1,0Z"/>
        <path class="cls-1" d="M421.3,6.6H90.7C40.6,6.6,0,47.2,0,97.4v317.3c0,50.1,40.6,90.8,90.8,90.8h330.6c50.1,0,90.8-40.6,90.8-90.8V97.4c0-50.1-40.6-90.8-90.8-90.8ZM451.5,370c0,45-36.5,81.4-81.4,81.4h-228c-45,0-81.4-36.5-81.4-81.4v-118.8c0-22.2,9.1-43.4,25.1-58.8l113-108.3c31.9-31.3,83.1-31.2,114.9.2l112.8,108.1c16,15.4,25,36.6,25.1,58.8v118.8Z"/>
      </g>
    </g>
  </g>
</svg>