<?xml version="1.0" encoding="UTF-8"?>
<svg xmlns="http://www.w3.org/2000/svg" version="1.1" viewBox="0 0 512 512">
  <defs>
    <style>
      .cls-1 {
        fill: #f4f0ed;
      }
    </style>
  </defs>
  <!-- Generator: Adobe Illustrator 28.6.0, SVG Export Plug-In . SVG Version: 1.2.0 Build 709)  -->
  <g>
    <g id="Capa_1">
      <g id="Capa_1-2" data-name="Capa_1">
        <g>
          <path class="cls-1" d="M204.4,204.2c0-20.2-15.7-25-33-25h-45.2v51.2h48.8c17.3,0,29.5-7.6,29.5-26.2h-.1Z"/>
          <path class="cls-1" d="M355.5,230.7c-20.9,0-34.9,13-36.2,33.9h71.1c-1.9-21.1-12.9-33.9-34.9-33.9h0Z"/>
          <path class="cls-1" d="M178.5,266.9h-52.6v60.5h51.5c19.7,0,35.7-7,35.7-29s-13.4-31.3-34.6-31.4h0Z"/>
          <path class="cls-1" d="M421.3,6.4H90.7C40.5,6.4,0,46.9,0,97.1v317.9c0,50.1,40.5,90.7,90.7,90.7h330.7c50.1,0,90.7-40.5,90.7-90.7V97.1c0-50.1-40.5-90.7-90.7-90.7h-.1ZM310.5,153.3h88.9v21.6h-88.9v-21.6h0ZM184.1,364.8h-106.4v-219.4h103.4c37.6,0,70.2,10.6,70.2,54.3s-10.3,32.9-30,42.3c27,7.7,40,31.4,40,59,0,44.6-37.4,63.7-77.2,63.9h0ZM434.2,292.2h-114.8c0,25.4,13.4,40.3,39,40.3s30.3-7.1,34.5-20.7h38.5c-11.9,36.5-36.5,53.5-74.4,53.5s-81.3-33.9-81.3-83.4,32.8-84.1,81.3-84.1,77.2,39.2,77.2,86.2v8.2Z"/>
        </g>
      </g>
    </g>
  </g>
</svg>