<?xml version="1.0" encoding="UTF-8"?>
<svg id="Capa_2" data-name="Capa 2" xmlns="http://www.w3.org/2000/svg" viewBox="0 0 487.08 487.08">
  <defs>
    <style>
      .cls-1 {
        fill: #323232;
      }
    </style>
  </defs>
  <g id="Capa_1-2" data-name="Capa 1">
    <g>
      <path class="cls-1" d="M439.03.05l-390.04-.05C22.71,2.2,2.19,22.79,0,48.99l.05,390.04c2.62,25.04,21.19,43.68,45.65,48.05h395.73c23.94-4.3,41.36-21.72,45.66-45.66V45.69C484.26,22.16,462.61,1.9,439.03.05ZM354.73,368.11l-110.93,31.12-111.44-31.12-25.06-280.26h272.48l-25.06,280.26Z"/>
      <polygon class="cls-1" points="292.8 177.26 290.38 211.93 163.25 213.75 166.3 245.99 287.33 245.99 281.78 293.96 244.9 303.62 241.56 303.63 205.27 293.99 201.88 264.84 168.12 264.84 173.1 319.78 174.01 320.69 243.83 339.69 313.5 320.5 329.91 145.02 157.17 145.02 159.61 177.86 292.8 177.26"/>
    </g>
  </g>
</svg>