<?xml version="1.0" encoding="UTF-8"?>
<svg id="Capa_1" xmlns="http://www.w3.org/2000/svg" version="1.1" viewBox="0 0 82 82">
  <!-- Generator: Adobe Illustrator 29.0.0, SVG Export Plug-In . SVG Version: 2.1.0 Build 186)  -->
  <defs>
    <style>
      .st0 {
        fill: #b2b1d9;
      }

      .st1 {
        fill: none;
        stroke: #323232;
        stroke-width: 3px;
      }
    </style>
  </defs>
  <circle class="st0" cx="41" cy="41" r="40"/>
  <path class="st1" d="M65,41H25M43,16c0,3.3-.6,6.5-1.9,9.6s-3.1,5.8-5.4,8.1c-2.3,2.3-5.1,4.2-8.1,5.4-3,1.3-6.3,1.9-9.6,1.9,3.3,0,6.5.6,9.6,1.9,3,1.3,5.8,3.1,8.1,5.4,2.3,2.3,4.2,5.1,5.4,8.1,1.3,3,1.9,6.3,1.9,9.6M1,41c0-22.1,17.9-40,40-40,22.1,0,40,17.9,40,40s-17.9,40-40,40S1,63.1,1,41Z"/>
</svg>