<?xml version="1.0" encoding="UTF-8"?>
<svg id="Capa_2" data-name="Capa 2" xmlns="http://www.w3.org/2000/svg" viewBox="0 0 300 300">
  <defs>
    <style>
      .cls-1 {
        fill: #323232;
      }
    </style>
  </defs>
  <g id="Capa_1-2" data-name="Capa 1">
    <g>
      <path class="cls-1" d="M300,28.14v243.73c-2.65,14.74-13.38,25.47-28.12,28.12H28.14c-15.06-2.7-26.5-14.17-28.11-29.6l-.03-240.23C1.35,14.03,13.99,1.35,30.17,0l240.23.03c14.52,1.14,27.86,13.62,29.6,28.11ZM115.37,172.35c.23.6.46,1.21.92,1.69,20.85,21.65,39.96,46.19,60.96,67.38,5.77,5.82,8.94,8.08,17.28,4.96,13.98-5.23,28.64-14.74,42.49-20.79,2.36-2.2,4.31-5.13,4.42-8.47V82.9c-.46-5.1-2.68-7.68-6.85-10.14-13.23-7.83-29.48-13.72-43.32-20.54-4.86-.61-8.47.37-11.99,3.73l-64.71,71.69-43.62-35.37c-1.51-.47-4.5-.45-6.06-.13-1.93.4-15.6,6.31-17.12,7.49-1.81,1.41-3.26,3.77-3.25,6.12l.42,90.45c.81,2.45,2.32,3.69,4.48,4.89,2.59,1.43,15.93,6.97,18.26,6.98,2.48,0,3.95-1.08,5.85-2.4,12.74-8.91,24.82-21.73,37.53-31.02,1.02-.74,2.01-1.52,3.02-2.28h1.28Z"/>
      <polygon class="cls-1" points="192.2 191.02 141.8 150.3 192.2 108.41 192.2 191.02"/>
      <polygon class="cls-1" points="69.16 177.55 69.16 121.89 94.29 150.22 69.16 177.55"/>
    </g>
  </g>
</svg>