<?xml version="1.0" encoding="UTF-8"?>
<svg id="Capa_2" data-name="Capa 2" xmlns="http://www.w3.org/2000/svg" viewBox="0 0 300 300">
  <defs>
    <style>
      .cls-1 {
        fill: #323232;
      }
    </style>
  </defs>
  <g id="Capa_1-2" data-name="Capa 1">
    <g>
      <path class="cls-1" d="M271.88,0c14.77,2.59,25.45,13.4,28.12,28.12v243.73c-2.7,15.06-14.17,26.5-29.6,28.11l-240.23.03c-16.14-1.35-28.82-13.99-30.17-30.17L.03,29.6C1.26,15.09,13.57,1.75,28.14,0h243.73ZM156.46,221.18v-41.31l7.22,4.79c30.92,16.78,67.04-9.05,59.28-44.04-2.02-9.11-8.49-18.89-16.7-23.45,6.23-5.62,11.99-11.12,15.09-19.17,9.8-25.44-7.78-52.61-34.73-54.63-25.02-1.88-53.17.79-78.34.74-34.61,6.51-44.31,53.13-14.52,71.92l-.37,1.21c-23.13,14.71-23.19,51.31.37,65.58l-.36,1.21c-36.49,25.26-10.94,81.79,32.71,71.26,15.24-3.68,28.75-18.28,30.35-34.1Z"/>
      <path class="cls-1" d="M143.57,110.15h-31.35c-4.43,0-13.05-5.21-16.1-8.51-15.61-16.94-3.48-45.39,19.61-45.39h26.95l.88.88v53.02Z"/>
      <path class="cls-1" d="M156.46,110.15v-53.02l.88-.88h26.95c23.09,0,35.22,28.45,19.61,45.39-3.04,3.3-11.66,8.51-16.1,8.51h-31.35Z"/>
      <path class="cls-1" d="M143.57,123.04v53.9h-30.17c-12.35,0-23.79-13.6-24.34-25.46-.61-13.1,10.53-28.45,24.34-28.45h30.17Z"/>
      <path class="cls-1" d="M143.57,189.83v29c0,8.63-8.78,18.96-16.43,22.24-23.98,10.31-47.46-14.92-34.43-37.94,3.26-5.75,12.72-13.3,19.51-13.3h31.35Z"/>
      <path class="cls-1" d="M203.12,130.86c26.85,26.53-17.18,65.08-40.52,36.13-21.56-26.75,16.73-59.64,40.52-36.13Z"/>
    </g>
  </g>
</svg>