<?xml version="1.0" encoding="UTF-8"?>
<svg id="Capa_2" data-name="Capa 2" xmlns="http://www.w3.org/2000/svg" viewBox="0 0 300 299.95">
  <defs>
    <style>
      .cls-1 {
        fill: #323232;
      }
    </style>
  </defs>
  <g id="Capa_1-2" data-name="Capa 1">
    <path class="cls-1" d="M265.98,0c18.35,4.82,31.45,17.73,33.97,36.92l.05,225c-1.93,20.15-16.86,35.44-36.96,38.03H36.92c-19.19-2.52-32.1-15.61-36.92-33.97V33.98C4.71,16.14,16.16,4.7,33.98,0h232ZM126.54,237.27v-18.16c-10.21,3.26-23.36,1.03-29.8-8.28-2.66-3.85-3.26-8.22-6.55-12.2-2.77-3.35-6.6-4.93-9.33-8.25-.49-2.62,1.16-1.65,2.92-1.76,18-1.15,14.54,22.59,37.21,18.49,9.25-1.67,4.97-8.5,11.38-13.19-6.14-2.82-13.26-3.01-19.88-5.88-19.89-8.62-27.77-36.68-19.35-55.64,1.26-2.83,5.95-7.71,6.25-9.03.5-2.16-1.46-12.68-.98-17.33,1.96-19.01,22.12,1.26,28.63,1.63,4.88.28,15.84-3.45,22.31-3.48,7.08-.04,18.26,3.79,23.52,3.48,3.4-.2,22.46-14.41,26.43-8.57.9,3.45,2.02,6.78,2.24,10.4.28,4.51-1.49,10.13-1.22,12.92.11,1.19,6.13,9.74,7.37,13.75,8.73,28.27-9.74,56.85-40.16,55.99.4,3.15,3,5.05,4.09,8.2,4.01,11.64-.25,24.93,1.76,35.73.34,1.83.98,2.53,2.66,3.26,32.56-5.79,60.51-38.3,66.16-70.36,14.38-81.57-76.17-137.57-144.65-93.1-56.37,36.6-54.38,119.79,2.82,154.72,3.9,2.38,24.01,13.55,26.16,6.65Z"/>
  </g>
</svg>