<?xml version="1.0" encoding="UTF-8"?>
<svg xmlns="http://www.w3.org/2000/svg" version="1.1" viewBox="0 0 512 512">
  <defs>
    <style>
      .cls-1 {
        fill: #323232;
      }
    </style>
  </defs>
  <!-- Generator: Adobe Illustrator 28.6.0, SVG Export Plug-In . SVG Version: 1.2.0 Build 709)  -->
  <g>
    <g id="Capa_1">
      <g id="Surfaces">
        <g id="Publishing_Surface">
          <g id="Outline_no_shadow">
            <path class="cls-1" d="M421.3,6.4H90.7C40.5,6.4,0,46.9,0,97.1v317.9c0,50.1,40.5,90.7,90.7,90.7h330.7c50.1,0,90.7-40.5,90.7-90.7V97.1c0-50.1-40.5-90.7-90.7-90.7ZM186,355.8c0,2.3-1.1,3.4-3,3.4h-41.8c-1.9,0-2.8-1.1-2.8-3.4v-218.9c0-1.9,1.1-2.8,3-2.8h41.6c1.3-.2,2.6.6,2.8,2.1.2.2.2.4.2.6v218.9ZM376.5,349.4c-11.1,4.7-22.8,8.1-34.8,10.2-10.7,1.9-21.8,3-32.9,3-15.8.2-31.6-3-45.9-9.6-13.4-6.2-24.5-16.4-32.2-29-7.9-13-11.7-29.2-11.7-48.6-.2-15.8,3.8-31.4,11.7-45,8.1-13.9,19.8-25.4,33.9-33.1,14.9-8.3,32.9-12.4,54-12.4s2.6,0,4.5.2,4.1.2,6.6.4v-67.4c0-1.5.6-2.3,2.1-2.3h43.3c1.1-.2,1.9.6,2.1,1.5v203.5c0,3.8.2,8.1.4,12.8.4,4.5.6,8.7.9,12.4,0,1.5-.6,2.8-2.1,3.4ZM317,224.6c-8.3,0-16.6,1.7-24.1,5.5-7.3,3.6-13.4,9-18.1,15.8s-7,16-7,27.1c-.2,7.5,1.1,14.9,3.6,22,2.1,5.8,5.3,10.9,9.6,15.1,4.1,3.8,9,6.8,14.5,8.5,5.8,1.9,11.7,2.8,17.7,2.8s6.2-.2,9-.4c2.8.2,5.3-.2,7.7-1.1v-93.9c-1.9-.4-3.8-.9-5.8-1.1-2.3-.2-4.7-.4-7-.4Z"/>
          </g>
        </g>
      </g>
    </g>
  </g>
</svg>