<?xml version="1.0" encoding="UTF-8"?>
<svg id="Capa_2" data-name="Capa 2" xmlns="http://www.w3.org/2000/svg" viewBox="0 0 511.36 511.04">
  <defs>
    <style>
      .cls-1 {
        fill: #f1f1f1;
      }
    </style>
  </defs>
  <g id="Capa_1-2" data-name="Capa 1">
    <g>
      <path class="cls-1" d="M433.94,511.04H78.37c-9.4,0-18.77-1.41-27.64-4.52-1.4-.49-2.79-1.02-4.18-1.61-12.64-5.34-23.07-13.84-30.94-24.35C5.25,466.73,0,449.73,0,432.45V78.15C0,57.7,7.65,37.83,21.92,23.18c7.86-8.07,17.43-14.43,28.23-18.51C58.54,1.51,67.47.05,76.43.05L434.45,0c8.3,0,16.58,1.24,24.42,3.97,5.83,2.03,11.36,4.73,16.48,8.02,21.34,13.69,34.02,37.53,34.45,62.88,2.07,120.24,2.07,241.25,0,361.49-.36,20.66-8.81,40.51-23.98,54.53-1.24,1.15-2.52,2.26-3.82,3.33-13.51,11.07-30.6,16.83-48.07,16.83ZM427.81,82.23c-8.73-8.57-19.68-14.71-31.42-18.26-6.94-2.1-14.17-3.04-21.41-3.04l-238.65-.05c-10.22,0-20.39,1.89-29.76,5.97-14.76,6.42-27.14,17.41-35.34,31.15-6.93,11.62-10.34,25.01-10.34,38.54l-.05,238.24c0,9.53,1.63,19.03,5.21,27.86,7.48,18.5,22.08,33.52,40.33,41.5,9.38,4.1,19.58,6.01,29.82,6.01l238.94.05c4.67,0,9.35-.36,13.93-1.27,31.55-6.23,55.55-31.21,60.37-63.25.53-3.5.72-7.04.72-10.58l-.06-238.88c0-8.65-1.36-17.28-4.32-25.41-3.92-10.8-10.2-20.93-17.98-28.58Z"/>
      <path class="cls-1" d="M130.52,91.14l248.22-.26c22.71,2.23,39.7,19.57,41.47,42.37v244.59c-2.03,23.21-19.03,40.59-42.42,42.42h-244.59c-23.21-2.03-40.59-19.03-42.42-42.42l.05-245.54c2.03-21.62,18.2-38.37,39.68-41.16ZM356.06,121.06c-37.79,4.95-31.76,63.56,7.63,59.51,38.85-4,32.87-64.82-7.63-59.51ZM246.32,151.04c-64.24,5.26-108.13,68.26-92.33,130.66,22.53,89.02,142.25,107.2,190.76,28.64,45.34-73.43-13.12-166.29-98.42-159.31Z"/>
      <path class="cls-1" d="M308.05,201.99c67.49,66.25-27.27,171.14-99.47,111.94-80.99-66.41,26.26-183.81,99.47-111.94Z"/>
    </g>
  </g>
</svg>