<?xml version="1.0" encoding="UTF-8"?>
<svg xmlns="http://www.w3.org/2000/svg" version="1.1" viewBox="0 0 512 512">
  <defs>
    <style>
      .cls-1 {
        fill: #323232;
      }
    </style>
  </defs>
  <!-- Generator: Adobe Illustrator 28.6.0, SVG Export Plug-In . SVG Version: 1.2.0 Build 709)  -->
  <g>
    <g id="Capa_1">
      <g id="Layer_2">
        <g id="Surfaces">
          <g id="Photo_Surface">
            <g id="Outline_no_shadow">
              <path class="cls-1" d="M224.9,191.9c3.5,5.5,5.3,12,5.1,18.9,0,9.4-2.1,16.6-6.6,22-9.9,11.8-27.4,15.1-42,15.1h-11.3c-2.6,0-5.3-.2-8.3-.4v-71.7c1.5-.2,4.5-.4,8.7-.2,4.1-.2,9-.2,14.5-.2,14.7,0,31.5,3.3,39.9,16.5Z"/>
              <path class="cls-1" d="M421.3,6.4H90.7C40.5,6.4,0,46.9,0,97.1v317.9c0,50.1,40.5,90.7,90.7,90.7h330.7c50.1,0,90.7-40.5,90.7-90.7V97.1c0-50.1-40.5-90.7-90.7-90.7ZM263.7,254.9c-8.5,11.9-20.5,20.9-34.3,26-14.5,5.3-30.5,7.3-48,7.3s-8.5,0-10.7-.2c-2.1-.2-5.1-.2-9.2-.2v68.5c.2,1.5-.9,2.8-2.3,3h-41.4c-1.7,0-2.6-.9-2.6-2.8v-219.5c0-1.5.6-2.3,2.1-2.3,3.6,0,7,0,11.9-.2,5.1-.2,10.5-.2,16.2-.4,5.8-.2,11.9-.2,18.6-.4,6.6-.2,13-.2,19.4-.2,17.5,0,32,2.1,43.9,6.6,10.7,3.6,20.5,9.6,28.6,17.5,6.8,6.8,12.2,15.1,15.6,24.3,3.2,9,4.9,18.1,4.9,27.7,0,18.3-4.3,33.5-12.8,45.4ZM414.9,337.9c-6,8.5-14.3,15.1-23.9,19-10.5,4.5-23.3,6.8-38.6,6.8s-19.4-.9-29-2.8c-7.5-1.3-14.9-3.6-21.8-6.8-1.5-.9-2.6-2.3-2.3-4.1v-37.1c0-.6.2-1.5.9-1.9s1.3-.2,1.9.2c8.3,4.9,17.1,8.3,26.5,10.5,8.1,2.1,16.6,3.2,25.2,3.2s13.9-1.1,17.7-3c3.4-1.5,5.8-5.1,5.8-9s-1.7-5.8-5.1-8.5c-3.4-2.8-10.5-6-20.9-10-10.9-3.8-20.9-9-30.3-15.4-6.6-4.7-12.2-10.9-16.2-18.1-3.4-6.8-5.1-14.3-4.9-21.8,0-9.2,2.6-17.9,7.3-25.8,5.3-8.5,13.2-15.4,22.4-19.6,10-5.1,22.6-7.5,37.8-7.5s17.7.6,26.5,1.9c6.4.9,12.6,2.6,18.3,4.9.9.2,1.7,1.1,2.1,1.9.2.9.4,1.7.4,2.6v34.8c0,.9-.4,1.7-1.1,2.1-1.9.4-3,.4-3.8,0-6.4-3.4-13.2-5.8-20.5-7.3-7.9-1.7-15.8-2.8-23.9-2.8-4.3-.2-8.7.4-12.8,1.5-2.8.6-5.1,2.1-6.6,4.3-1.1,1.7-1.7,3.8-1.7,5.8s.9,3.8,2.1,5.5c1.9,2.3,4.5,4.3,7.3,5.8,4.9,2.6,10,4.9,15.1,7,11.5,3.8,22.6,9.2,32.9,15.6,7,4.5,12.8,10.5,16.9,17.7,3.4,6.8,5.1,14.3,4.9,22,.2,10-2.8,20.1-8.3,28.4Z"/>
            </g>
          </g>
        </g>
      </g>
    </g>
  </g>
</svg>